<?xml version="1.0" encoding="UTF-8" standalone="no"?>
<!DOCTYPE svg PUBLIC "-//W3C//DTD SVG 20010904//EN" "http://www.w3.org/TR/2001/REC-SVG-20010904/DTD/svg10.dtd">
<svg version="1.0" xmlns="http://www.w3.org/2000/svg" width="500.000000pt" height="500.000000pt" viewBox="0 0 500.000000 500.000000" preserveAspectRatio="xMidYMid meet">
<metadata>
Created by potrace 1.11, written by Peter Selinger 2001-2013
</metadata>
<g transform="translate(0.000000,500.000000) scale(0.100000,-0.100000)" fill="#000000" stroke="none">
<path d="M530 4113 c-69 -5 -76 -10 -55 -33 14 -16 31 -20 75 -20 69 0 136 -32 163 -77 10 -18 21 -65 25 -109 13 -132 7 -1805 -7 -1914 -13 -107 -42 -178 -74 -185 -12 -2 -48 -9 -80 -15 -91 -18 -91 -64 0 -62 26 0 221 2 433 4 346 3 385 5 388 19 4 22 -19 30 -117 39 -131 13 -156 40 -171 188 -16 144 -23 912 -15 1475 l7 528 27 12 c14 6 69 11 121 12 84 0 101 -3 152 -28 116 -57 224 -209 264 -372 22 -86 24 -277 5 -355 -23 -96 -79 -200 -140 -260 -67 -67 -131 -100 -212 -109 -36 -5 -67 -14 -77 -25 -16 -16 -16 -18 3 -33 25 -19 178 -12 270 13 282 75 473 318 507 642 9 91 9 122 -6 206 -50 300 -229 439 -581 452 -149 5 -849 11 -905 7z"/>
<path d="M2380 4113 c-63 -2 -118 -7 -123 -12 -18 -18 24 -41 78 -41 30 0 66 -5 82 -11 41 -15 82 -58 94 -98 22 -73 30 -697 19 -1513 -5 -442 -15 -837 -20 -878 -39 -281 -157 -507 -315 -602 -53 -32 -76 -65 -50 -74 51 -20 224 89 382 239 223 213 312 379 355 659 9 63 12 332 13 1113 l0 1030 22 47 c24 53 58 75 130 85 27 3 56 10 67 15 17 9 17 11 2 26 -15 15 -52 17 -319 18 -166 0 -354 -1 -417 -3z"/>
<path d="M3818 3290 c-153 -26 -285 -111 -393 -255 -109 -145 -161 -296 -171 -495 -15 -288 65 -536 226 -701 121 -123 236 -168 437 -170 157 -1 258 29 380 113 53 36 153 133 197 190 l28 38 -32 40 c-48 61 -69 61 -143 4 -83 -64 -156 -87 -277 -88 -134 -1 -184 18 -270 103 -113 111 -165 253 -172 466 l-3 100 105 3 c58 2 215 -1 350 -7 432 -20 431 -20 437 -3 10 25 -14 171 -42 259 -30 97 -104 214 -173 273 -123 106 -316 158 -484 130z m179 -153 c77 -40 136 -140 154 -259 6 -43 9 -83 6 -90 -3 -10 -63 -14 -266 -17 -237 -3 -261 -1 -261 14 0 39 34 165 60 220 34 70 82 121 136 141 46 17 129 12 171 -9z"/>
</g>
</svg>